<?xml version="1.0" standalone="no"?>
<!DOCTYPE svg PUBLIC "-//W3C//DTD SVG 20010904//EN"
 "http://www.w3.org/TR/2001/REC-SVG-20010904/DTD/svg10.dtd">
<svg version="1.0" xmlns="http://www.w3.org/2000/svg"
 width="500.000000pt" height="500.000000pt" viewBox="0 0 500.000000 500.000000"
 preserveAspectRatio="xMidYMid meet">

<g transform="translate(0.000000,500.000000) scale(0.100000,-0.100000)"
fill="#000000" stroke="none">
<path d="M3155 4384 c71 -46 139 -106 155 -135 7 -13 -17 -8 -113 21 -386 119
-764 143 -1087 69 -128 -29 -264 -76 -370 -128 -52 -25 -99 -48 -104 -50 -5
-2 2 15 15 39 29 51 105 132 150 159 29 18 31 21 13 21 -90 0 -482 -146 -509
-189 -7 -12 59 -46 163 -85 39 -15 72 -29 72 -31 0 -2 -20 -32 -44 -67 -59
-84 -108 -169 -102 -175 3 -3 66 13 139 36 74 22 137 41 140 41 3 0 11 -34 18
-75 7 -41 16 -75 20 -75 4 0 53 18 109 41 207 83 411 120 659 120 220 -1 404
-28 633 -94 65 -19 120 -32 122 -29 3 2 8 31 12 64 6 48 10 59 23 55 9 -3 66
-24 126 -46 106 -39 135 -47 135 -36 0 10 -93 190 -112 217 l-19 27 23 5 c13
3 81 17 152 31 71 14 132 27 134 30 13 12 -160 115 -288 171 -95 42 -299 114
-322 114 -7 0 19 -21 57 -46z m-531 -82 c2 -4 1 -35 -3 -70 -4 -34 -5 -62 -3
-62 2 0 20 14 39 30 29 26 37 29 50 18 14 -11 9 -18 -36 -58 l-51 -45 39 -49
c35 -44 44 -76 21 -76 -4 0 -22 16 -39 35 -36 42 -41 43 -41 11 0 -28 -17 -43
-32 -28 -9 9 -1 135 18 265 5 34 25 50 38 29z m-614 -104 c6 -24 18 -65 26
-92 28 -97 14 -150 -46 -181 -50 -26 -98 -19 -136 19 -30 30 -34 40 -34 84 0
42 5 55 29 80 32 31 74 45 110 35 21 -5 22 -4 15 46 -5 43 -4 51 9 51 11 0 20
-15 27 -42z m494 32 c14 -5 26 -17 26 -26 0 -14 -7 -15 -44 -10 -37 6 -48 3
-72 -17 -38 -33 -38 -81 1 -114 24 -21 35 -24 72 -18 35 5 43 3 43 -9 0 -24
-39 -39 -84 -33 -60 8 -96 52 -96 115 0 56 19 88 64 108 38 16 57 17 90 4z
m-236 -47 c32 -20 55 -78 47 -119 -8 -46 -65 -94 -111 -94 -78 0 -131 58 -121
132 12 89 107 131 185 81z m632 12 c31 -16 65 -69 57 -89 -3 -7 -36 -25 -73
-41 -90 -37 -95 -43 -46 -51 46 -7 57 -30 18 -40 -31 -8 -91 19 -111 49 -19
30 -22 95 -6 126 16 30 70 61 104 61 15 0 41 -7 57 -15z m228 -62 c-2 -12 -16
-20 -41 -24 -51 -8 -58 -17 -78 -96 -10 -43 -22 -68 -30 -68 -19 0 -15 76 7
133 18 49 51 71 107 72 31 0 38 -3 35 -17z"/>
<path d="M1903 4100 c-49 -20 -59 -96 -17 -129 35 -28 69 -26 99 4 40 39 32
96 -16 120 -32 17 -35 17 -66 5z"/>
<path d="M2174 4160 c-28 -11 -54 -48 -54 -78 0 -30 43 -72 74 -72 38 0 55 10
71 41 20 38 19 54 -7 83 -27 29 -55 38 -84 26z"/>
<path d="M2796 4149 c-19 -15 -26 -30 -26 -54 l0 -34 63 26 c82 35 87 40 58
64 -30 25 -62 24 -95 -2z"/>
<path d="M2155 3751 l-30 -6 -6 -100 c-4 -55 -7 -147 -8 -204 -1 -61 -5 -101
-10 -95 -5 5 -30 58 -56 117 -26 59 -51 110 -56 113 -4 2 -28 0 -52 -7 -52
-13 -53 -17 -64 -162 -3 -48 -10 -86 -15 -85 -6 2 -40 76 -76 164 l-67 161
-47 -16 c-26 -9 -50 -19 -53 -23 -9 -9 61 -223 115 -353 23 -55 51 -122 62
-150 11 -27 21 -51 23 -53 2 -2 30 4 63 13 l60 17 8 147 c5 80 8 152 7 159 -4
50 63 -87 129 -261 2 -4 29 -5 60 -1 l56 7 6 81 c3 44 8 186 10 314 6 257 11
238 -59 223z"/>
<path d="M2385 3708 c-4 -13 -93 -389 -121 -513 -9 -38 -17 -76 -20 -82 -2 -9
12 -13 50 -13 l53 0 13 63 c6 34 17 68 22 75 6 7 33 12 63 12 l52 0 9 -82 9
-83 53 -3 c40 -2 52 0 52 11 0 14 -73 525 -85 595 l-6 32 -70 0 c-47 0 -71 -4
-74 -12z m90 -255 l7 -113 -42 0 c-30 0 -41 4 -38 13 3 6 16 62 29 124 13 61
27 106 30 100 4 -7 10 -63 14 -124z"/>
<path d="M1363 3563 c15 -2 39 -2 55 0 15 2 2 4 -28 4 -30 0 -43 -2 -27 -4z"/>
<path d="M1259 3531 c-24 -15 -55 -41 -69 -57 -23 -27 -23 -27 10 3 19 17 55
43 80 57 25 14 40 26 34 26 -5 0 -30 -13 -55 -29z"/>
<path d="M1491 3487 c-1 -24 -4 -27 -23 -22 -21 5 -21 5 2 -9 23 -13 25 -13
28 5 2 10 1 27 -1 37 -3 10 -5 6 -6 -11z"/>
<path d="M1388 3473 c12 -2 30 -2 40 0 9 3 -1 5 -23 4 -22 0 -30 -2 -17 -4z"/>
<path d="M1335 3460 c-3 -6 1 -7 9 -4 18 7 21 14 7 14 -6 0 -13 -4 -16 -10z"/>
<path d="M1289 3423 l-24 -28 28 24 c25 23 32 31 24 31 -2 0 -14 -12 -28 -27z"/>
<path d="M1155 3429 c-4 -6 -5 -12 -2 -15 2 -3 7 2 10 11 7 17 1 20 -8 4z"/>
<path d="M1141 3384 c0 -11 3 -14 6 -6 3 7 2 16 -1 19 -3 4 -6 -2 -5 -13z"/>
<path d="M1275 3320 c10 -11 20 -20 23 -20 3 0 -3 9 -13 20 -10 11 -20 20 -23
20 -3 0 3 -9 13 -20z"/>
<path d="M1318 3293 c6 -2 18 -2 25 0 6 3 1 5 -13 5 -14 0 -19 -2 -12 -5z"/>
<path d="M1150 3283 c0 -5 12 -20 28 -34 l27 -24 -25 30 c-14 17 -26 32 -27
34 -2 2 -3 0 -3 -6z"/>
<path d="M1398 3283 c23 -2 61 -2 85 0 23 2 4 4 -43 4 -47 0 -66 -2 -42 -4z"/>
<path d="M1548 3273 c7 -3 16 -2 19 1 4 3 -2 6 -13 5 -11 0 -14 -3 -6 -6z"/>
<path d="M1621 3241 c42 -26 61 -54 72 -106 4 -17 5 -17 6 3 2 35 -25 79 -66
107 -21 14 -42 25 -47 25 -6 0 10 -13 35 -29z"/>
<path d="M1238 3213 c7 -3 16 -2 19 1 4 3 -2 6 -13 5 -11 0 -14 -3 -6 -6z"/>
<path d="M1358 3203 c7 -3 16 -2 19 1 4 3 -2 6 -13 5 -11 0 -14 -3 -6 -6z"/>
<path d="M1468 3203 c6 -2 18 -2 25 0 6 3 1 5 -13 5 -14 0 -19 -2 -12 -5z"/>
<path d="M1510 3196 c0 -2 7 -7 16 -10 8 -3 12 -2 9 4 -6 10 -25 14 -25 6z"/>
<path d="M1561 3134 c0 -11 3 -14 6 -6 3 7 2 16 -1 19 -3 4 -6 -2 -5 -13z"/>
<path d="M1509 3063 c-13 -16 -12 -17 4 -4 9 7 17 15 17 17 0 8 -8 3 -21 -13z"/>
<path d="M1280 3048 c0 -12 3 -17 8 -12 4 5 11 12 15 15 5 3 2 9 -7 12 -12 5
-16 0 -16 -15z"/>
<path d="M1671 3043 c-10 -26 -10 -27 4 -9 8 11 15 23 15 28 0 15 -7 8 -19
-19z"/>
<path d="M1418 3033 c6 -2 18 -2 25 0 6 3 1 5 -13 5 -14 0 -19 -2 -12 -5z"/>
<path d="M1606 2975 c-11 -8 -15 -15 -9 -15 6 0 16 7 23 15 16 19 11 19 -14 0z"/>
<path d="M1270 2975 c0 -7 77 -45 91 -45 7 0 -10 11 -37 25 -53 27 -54 27 -54
20z"/>
<path d="M2220 2945 c-8 -2 -67 -9 -131 -15 -64 -7 -122 -15 -128 -20 -9 -5
-15 -64 -19 -191 l-7 -183 -115 -17 c-120 -18 -238 -44 -248 -53 -3 -3 -4 -73
-3 -155 l2 -149 -58 -12 c-105 -21 -207 -51 -270 -81 -81 -38 -104 -75 -111
-174 -7 -119 51 -279 138 -378 l42 -47 -30 -34 c-47 -53 -59 -126 -39 -226 35
-180 139 -326 279 -394 92 -44 234 -71 331 -62 37 3 67 3 67 -2 0 -4 24 -32
52 -61 137 -137 393 -186 628 -121 93 26 229 96 296 152 89 74 208 212 294
340 106 157 116 168 155 168 80 0 181 66 204 132 10 27 8 30 -24 44 -39 16
-147 19 -174 4 -17 -9 -19 -5 -18 42 1 40 8 65 34 108 56 92 68 147 67 305 0
77 -8 189 -17 248 l-17 109 44 43 c53 51 74 90 82 149 6 41 -10 116 -24 116
-28 -1 -121 -62 -148 -97 l-31 -41 -16 28 c-32 54 -150 115 -169 87 -5 -6 -7
-46 -5 -88 3 -61 9 -86 31 -123 26 -44 68 -76 101 -76 25 0 18 -15 -28 -57
-42 -39 -153 -90 -166 -77 -3 3 -6 187 -6 409 0 222 -3 406 -6 409 -18 18
-782 56 -839 41z m579 -30 c95 -8 176 -16 179 -19 3 -4 -8 -6 -24 -6 -16 0
-81 -9 -144 -20 l-115 -20 -275 21 c-293 21 -431 35 -390 38 14 2 79 9 145 16
136 16 352 12 624 -10z m-704 -34 c50 -6 196 -18 325 -27 129 -9 238 -19 242
-23 3 -3 4 -95 1 -203 -5 -179 -8 -198 -23 -198 -29 0 -577 81 -652 96 l-28 6
0 184 0 184 23 -4 c12 -3 63 -10 112 -15z m943 -198 l-3 -198 -2 190 c-3 136
-7 191 -16 197 -8 5 -7 8 6 8 16 0 17 -15 15 -197z m-61 181 c-3 -3 -12 -4
-19 -1 -8 3 -5 6 6 6 11 1 17 -2 13 -5z m-31 -92 l0 -82 -3 79 c-3 73 -6 80
-26 84 -18 3 -18 4 3 3 25 -1 25 -3 26 -84z m-83 71 c-7 -2 -19 -2 -25 0 -7 3
-2 5 12 5 14 0 19 -2 13 -5z m-70 -10 c-7 -2 -19 -2 -25 0 -7 3 -2 5 12 5 14
0 19 -2 13 -5z m-70 -10 c-16 -3 -23 -13 -26 -36 -4 -31 -4 -31 -5 6 -2 34 0
37 26 36 22 -1 23 -2 5 -6z m15 -376 c26 3 45 4 42 1 -3 -3 -26 -9 -52 -12
l-48 -7 2 93 2 93 3 -87 4 -88 47 7z m-598 39 c113 -19 267 -42 342 -52 76
-10 136 -20 134 -22 -3 -2 -78 -19 -167 -38 -183 -39 -139 -41 -434 21 -88 19
-211 42 -272 51 -62 10 -111 19 -109 21 3 3 264 49 291 52 6 0 102 -14 215
-33z m767 18 c-3 -3 -12 -4 -19 -1 -8 3 -5 6 6 6 11 1 17 -2 13 -5z m597 -20
c15 -57 -11 -126 -74 -199 -45 -53 -45 -49 -25 -210 38 -306 3 -448 -150 -600
-191 -192 -440 -271 -693 -219 -161 32 -279 115 -345 242 -19 37 -38 77 -41
89 l-7 21 51 -19 c114 -43 316 -14 472 68 93 49 86 60 -7 13 -42 -21 -112 -48
-157 -60 -157 -42 -346 -23 -369 39 -17 43 -13 148 7 192 16 37 20 39 48 33
47 -10 71 -8 210 26 71 17 244 56 385 86 140 30 258 59 261 64 3 5 32 18 65
31 62 23 155 101 155 131 0 9 -13 21 -29 28 -63 26 -104 93 -116 191 -8 66 0
76 47 56 50 -21 99 -67 119 -111 15 -34 19 -37 24 -21 17 55 46 92 96 123 29
17 56 32 60 32 4 0 10 -12 13 -26z m-491 -1 c-7 -2 -21 -2 -30 0 -10 3 -4 5
12 5 17 0 24 -2 18 -5z m-93 -13 c-14 -4 -34 -8 -45 -8 -16 0 -15 2 5 8 14 4
34 8 45 8 16 0 15 -2 -5 -8z m-80 -10 c-8 -5 -24 -9 -35 -9 -16 1 -16 2 5 9
35 11 48 11 30 0z m197 -232 c-1 -46 -3 -11 -3 77 0 88 2 125 3 83 2 -42 2
-114 0 -160z m-1302 203 c61 -11 206 -38 323 -62 l212 -42 0 -219 0 -218 -22
5 c-13 3 -86 19 -163 35 -77 17 -192 44 -255 60 -63 16 -143 34 -177 41 l-63
12 0 203 c0 188 1 204 18 204 9 0 67 -9 127 -19z m1282 13 c-3 -3 -12 -4 -19
-1 -8 3 -5 6 6 6 11 1 17 -2 13 -5z m-38 -8 c-2 -2 -29 -6 -59 -9 -36 -4 -46
-3 -30 3 25 8 97 13 89 6z m-149 -25 c-34 -11 -136 -24 -129 -17 6 6 103 23
134 24 15 0 14 -2 -5 -7z m117 -23 c-3 -8 -6 -5 -6 6 -1 11 2 17 5 13 3 -3 4
-12 1 -19z m-255 -261 c2 -75 0 -137 -4 -137 -5 0 -7 93 -6 208 2 208 6 184
10 -71z m-69 246 c-7 -2 -19 -2 -25 0 -7 3 -2 5 12 5 14 0 19 -2 13 -5z m-73
-13 c-8 -5 -31 -9 -50 -9 l-35 2 35 7 c19 4 42 8 50 9 13 1 13 0 0 -9z m97
-67 c-2 -16 -4 -5 -4 22 0 28 2 40 4 28 2 -13 2 -35 0 -50z m-190 51 c-3 -3
-12 -4 -19 -1 -8 3 -5 6 6 6 11 1 17 -2 13 -5z m100 -271 c-1 -54 -3 -12 -3
92 0 105 2 149 3 98 2 -51 2 -136 0 -190z m-154 260 c-7 -2 -19 -2 -25 0 -7 3
-2 5 12 5 14 0 19 -2 13 -5z m-50 -10 c-7 -2 -19 -2 -25 0 -7 3 -2 5 12 5 14
0 19 -2 13 -5z m-56 -340 c-1 -54 -3 -10 -3 97 0 107 2 151 3 98 2 -54 2 -142
0 -195z m361 2 c-2 -2 -19 -5 -38 -8 l-35 -6 33 11 32 11 2 91 2 91 3 -94 c2
-51 2 -95 1 -96z m-1088 100 c0 -50 2 -56 29 -69 16 -9 31 -13 35 -11 3 3 4 2
1 -1 -2 -4 0 -15 5 -24 7 -13 5 -22 -7 -31 -27 -23 -53 -91 -53 -141 l0 -47
-52 -16 c-29 -9 -92 -19 -139 -22 -71 -5 -99 -2 -157 16 l-70 21 -10 58 c-16
90 8 181 57 219 33 25 279 98 344 102 14 1 17 -8 17 -54z m1017 23 c-3 -8 -6
-5 -6 6 -1 11 2 17 5 13 3 -3 4 -12 1 -19z m0 -50 c-3 -8 -6 -5 -6 6 -1 11 2
17 5 13 3 -3 4 -12 1 -19z m386 -5 c-7 -2 -19 -2 -25 0 -7 3 -2 5 12 5 14 0
19 -2 13 -5z m-46 -9 c-3 -3 -12 -4 -19 -1 -8 3 -5 6 6 6 11 1 17 -2 13 -5z
m-44 -11 c-7 -2 -19 -2 -25 0 -7 3 -2 5 12 5 14 0 19 -2 13 -5z m-46 -9 c-3
-3 -12 -4 -19 -1 -8 3 -5 6 6 6 11 1 17 -2 13 -5z m-44 -11 c-7 -2 -19 -2 -25
0 -7 3 -2 5 12 5 14 0 19 -2 13 -5z m-50 -10 c-7 -2 -19 -2 -25 0 -7 3 -2 5
12 5 14 0 19 -2 13 -5z m-1059 -15 c-3 -4 -11 -5 -19 -1 -21 7 -19 12 4 10 11
0 18 -5 15 -9z m196 -38 c63 -17 117 -35 120 -41 4 -5 15 -7 26 -3 11 3 15 2
8 -3 -7 -5 5 -24 37 -55 26 -26 49 -42 51 -36 3 7 4 -14 4 -45 l0 -56 -60 -24
c-97 -39 -164 -52 -266 -51 -122 0 -183 24 -194 74 -22 112 6 210 71 248 49
28 66 28 203 -8z m680 10 c-14 -4 -34 -8 -45 -8 -16 0 -15 2 5 8 14 4 34 8 45
8 16 0 15 -2 -5 -8z m-73 -16 c-3 -3 -12 -4 -19 -1 -8 3 -5 6 6 6 11 1 17 -2
13 -5z m-40 -10 c-3 -3 -12 -4 -19 -1 -8 3 -5 6 6 6 11 1 17 -2 13 -5z m-40
-10 c-3 -3 -12 -4 -19 -1 -8 3 -5 6 6 6 11 1 17 -2 13 -5z m-40 -10 c-3 -3
-12 -4 -19 -1 -8 3 -5 6 6 6 11 1 17 -2 13 -5z m-280 -20 c-3 -3 -12 -4 -19
-1 -8 3 -5 6 6 6 11 1 17 -2 13 -5z m-822 -181 c66 -17 162 -13 255 12 30 8
55 13 57 11 2 -2 10 -30 19 -62 22 -86 64 -171 117 -236 l46 -56 -32 -5 c-95
-14 -273 32 -366 94 -71 47 -111 95 -157 187 -39 77 -41 87 -16 77 9 -3 44
-13 77 -22z m880 -90 c26 -97 79 -194 138 -257 41 -43 49 -57 37 -62 -8 -4
-65 -9 -127 -12 -194 -8 -349 44 -451 152 -46 48 -99 137 -117 194 -7 23 -6
23 22 9 90 -47 249 -41 393 13 41 16 78 29 81 29 3 1 14 -29 24 -66z m1172
-186 c-3 -24 -9 -51 -13 -60 -6 -16 -3 -16 27 2 19 10 49 22 66 26 36 7 143
-11 143 -25 0 -5 -15 -26 -32 -46 -38 -43 -92 -69 -163 -79 -62 -9 -66 -12
-128 -105 -250 -373 -458 -533 -743 -571 -213 -28 -436 48 -536 184 -32 43
-93 165 -87 172 2 2 31 -6 64 -17 76 -26 206 -21 310 12 83 26 215 88 215 102
0 11 2 12 -67 -24 -144 -76 -339 -108 -453 -74 -30 9 -61 19 -67 24 -21 13
-34 106 -23 164 12 65 34 96 90 127 41 23 45 24 126 11 88 -14 208 -9 288 11
42 10 51 9 118 -19 148 -61 327 -64 500 -8 43 14 97 24 130 23 54 0 118 17
118 32 0 4 -6 16 -14 27 -13 17 -9 24 57 86 40 37 74 67 76 68 2 0 1 -19 -2
-43z m-1912 -27 c100 -50 201 -72 322 -69 62 2 96 -1 107 -10 8 -7 36 -20 61
-30 l47 -18 -37 -22 c-21 -12 -40 -20 -42 -17 -3 3 -31 -8 -62 -23 -114 -58
-216 -84 -331 -85 -138 -1 -195 18 -210 72 -14 50 -12 119 4 165 13 36 42 77
55 77 3 0 42 -18 86 -40z m1763 -91 c7 -12 11 -23 9 -26 -9 -8 -122 -16 -114
-7 8 8 78 51 87 53 3 1 11 -8 18 -20z m-1329 -118 c-34 -47 -39 -166 -9 -263
12 -40 31 -90 41 -110 l19 -38 -96 0 c-223 0 -396 97 -482 272 -37 75 -40 94
-14 83 64 -28 149 -38 227 -27 99 13 230 55 288 92 23 15 44 26 45 24 2 -1 -6
-16 -19 -33z"/>
<path d="M2890 1849 c-53 -21 -100 -84 -100 -133 0 -14 13 -40 28 -57 70 -79
225 -25 225 79 0 48 -24 85 -68 106 -38 18 -50 19 -85 5z m92 -21 c22 -11 48
-60 48 -90 0 -53 -60 -98 -129 -98 -47 0 -86 30 -96 75 l-7 30 27 -29 c22 -23
32 -27 58 -22 38 7 77 48 77 81 0 13 -11 32 -25 43 -14 11 -25 23 -25 26 0 7
47 -3 72 -16z"/>
<path d="M2552 1173 c-70 -34 -102 -125 -63 -175 44 -56 130 -60 189 -10 62
52 58 135 -7 179 -40 27 -73 29 -119 6z m98 -8 c38 -20 60 -53 60 -90 -1 -109
-184 -145 -219 -44 -15 44 -14 45 14 15 13 -14 29 -26 36 -26 26 0 77 33 88
56 17 37 14 52 -15 79 -21 20 -23 25 -10 25 9 0 30 -7 46 -15z"/>
<path d="M1403 2923 c15 -2 37 -2 50 0 12 2 0 4 -28 4 -27 0 -38 -2 -22 -4z"/>
<path d="M1488 2923 c7 -3 16 -2 19 1 4 3 -2 6 -13 5 -11 0 -14 -3 -6 -6z"/>
</g>
</svg>
